<mxfile host="app.diagrams.net" modified="2022-08-18T10:43:04.287Z" agent="5.0 (Windows NT 10.0; Win64; x64) AppleWebKit/537.36 (KHTML, like Gecko) Chrome/104.0.0.0 Safari/537.36" etag="y-AehO1twOEHWArs6q4r" version="20.2.4" type="github">
  <diagram id="3zpM8lw0tZSN6bLLj1Mo" name="Page-1">
    <mxGraphModel dx="1234" dy="402" grid="0" gridSize="10" guides="1" tooltips="1" connect="1" arrows="1" fold="1" page="1" pageScale="1" pageWidth="850" pageHeight="1100" math="0" shadow="0">
      <root>
        <mxCell id="0" />
        <mxCell id="1" parent="0" />
        <mxCell id="CuT0-UTq4PFeX5ZE3Q96-7" value="" style="edgeStyle=orthogonalEdgeStyle;rounded=0;orthogonalLoop=1;jettySize=auto;html=1;" edge="1" parent="1" source="CuT0-UTq4PFeX5ZE3Q96-1" target="CuT0-UTq4PFeX5ZE3Q96-6">
          <mxGeometry relative="1" as="geometry" />
        </mxCell>
        <mxCell id="CuT0-UTq4PFeX5ZE3Q96-1" value="" style="verticalLabelPosition=bottom;verticalAlign=top;html=1;shadow=1;dashed=0;strokeWidth=1;shape=mxgraph.android.phone2;strokeColor=#000000;" vertex="1" parent="1">
          <mxGeometry x="33" y="78" width="200" height="390" as="geometry" />
        </mxCell>
        <mxCell id="CuT0-UTq4PFeX5ZE3Q96-9" value="" style="edgeStyle=orthogonalEdgeStyle;rounded=0;orthogonalLoop=1;jettySize=auto;html=1;" edge="1" parent="1" source="CuT0-UTq4PFeX5ZE3Q96-6" target="CuT0-UTq4PFeX5ZE3Q96-8">
          <mxGeometry relative="1" as="geometry" />
        </mxCell>
        <mxCell id="CuT0-UTq4PFeX5ZE3Q96-6" value="" style="verticalLabelPosition=bottom;verticalAlign=top;html=1;shadow=1;dashed=0;strokeWidth=1;shape=mxgraph.android.phone2;strokeColor=#000000;" vertex="1" parent="1">
          <mxGeometry x="313" y="78" width="200" height="390" as="geometry" />
        </mxCell>
        <mxCell id="CuT0-UTq4PFeX5ZE3Q96-34" value="" style="edgeStyle=orthogonalEdgeStyle;rounded=0;orthogonalLoop=1;jettySize=auto;html=1;fontSize=14;" edge="1" parent="1" source="CuT0-UTq4PFeX5ZE3Q96-8" target="CuT0-UTq4PFeX5ZE3Q96-33">
          <mxGeometry relative="1" as="geometry" />
        </mxCell>
        <mxCell id="CuT0-UTq4PFeX5ZE3Q96-8" value="" style="verticalLabelPosition=bottom;verticalAlign=top;html=1;shadow=1;dashed=0;strokeWidth=1;shape=mxgraph.android.phone2;strokeColor=#000000;" vertex="1" parent="1">
          <mxGeometry x="593" y="78" width="200" height="390" as="geometry" />
        </mxCell>
        <mxCell id="CuT0-UTq4PFeX5ZE3Q96-10" value="&lt;b&gt;Registration Number&lt;/b&gt;" style="text;html=1;strokeColor=none;fillColor=none;align=center;verticalAlign=middle;whiteSpace=wrap;rounded=0;shadow=1;" vertex="1" parent="1">
          <mxGeometry x="52" y="143" width="124" height="30" as="geometry" />
        </mxCell>
        <mxCell id="CuT0-UTq4PFeX5ZE3Q96-11" value="&lt;b&gt;Vehicle Number&lt;/b&gt;" style="text;html=1;strokeColor=none;fillColor=none;align=center;verticalAlign=middle;whiteSpace=wrap;rounded=0;shadow=1;" vertex="1" parent="1">
          <mxGeometry x="39" y="182" width="124" height="30" as="geometry" />
        </mxCell>
        <mxCell id="CuT0-UTq4PFeX5ZE3Q96-14" value="" style="endArrow=none;html=1;rounded=0;" edge="1" parent="1">
          <mxGeometry relative="1" as="geometry">
            <mxPoint x="54" y="171" as="sourcePoint" />
            <mxPoint x="214" y="171" as="targetPoint" />
          </mxGeometry>
        </mxCell>
        <mxCell id="CuT0-UTq4PFeX5ZE3Q96-15" value="" style="endArrow=none;html=1;rounded=0;" edge="1" parent="1">
          <mxGeometry relative="1" as="geometry">
            <mxPoint x="53" y="209" as="sourcePoint" />
            <mxPoint x="213" y="209" as="targetPoint" />
          </mxGeometry>
        </mxCell>
        <mxCell id="CuT0-UTq4PFeX5ZE3Q96-17" value="&lt;b&gt;Service Type&lt;br&gt;&lt;br&gt;&lt;/b&gt;" style="text;html=1;strokeColor=none;fillColor=none;align=center;verticalAlign=middle;whiteSpace=wrap;rounded=0;shadow=1;" vertex="1" parent="1">
          <mxGeometry x="33" y="232" width="124" height="30" as="geometry" />
        </mxCell>
        <mxCell id="CuT0-UTq4PFeX5ZE3Q96-18" value="" style="endArrow=none;html=1;rounded=0;" edge="1" parent="1">
          <mxGeometry relative="1" as="geometry">
            <mxPoint x="52" y="253" as="sourcePoint" />
            <mxPoint x="212" y="253" as="targetPoint" />
          </mxGeometry>
        </mxCell>
        <mxCell id="CuT0-UTq4PFeX5ZE3Q96-19" value="&lt;b&gt;Location&lt;br&gt;&lt;br&gt;&lt;/b&gt;" style="text;html=1;strokeColor=none;fillColor=none;align=center;verticalAlign=middle;whiteSpace=wrap;rounded=0;shadow=1;" vertex="1" parent="1">
          <mxGeometry x="23" y="274" width="124" height="30" as="geometry" />
        </mxCell>
        <mxCell id="CuT0-UTq4PFeX5ZE3Q96-20" value="" style="endArrow=none;html=1;rounded=0;" edge="1" parent="1">
          <mxGeometry relative="1" as="geometry">
            <mxPoint x="52" y="300" as="sourcePoint" />
            <mxPoint x="212" y="300" as="targetPoint" />
          </mxGeometry>
        </mxCell>
        <mxCell id="CuT0-UTq4PFeX5ZE3Q96-21" value="&lt;b&gt;Description&lt;br&gt;&lt;/b&gt;" style="text;html=1;strokeColor=none;fillColor=none;align=center;verticalAlign=middle;whiteSpace=wrap;rounded=0;shadow=1;" vertex="1" parent="1">
          <mxGeometry x="33" y="316" width="124" height="30" as="geometry" />
        </mxCell>
        <mxCell id="CuT0-UTq4PFeX5ZE3Q96-22" value="" style="endArrow=none;html=1;rounded=0;" edge="1" parent="1">
          <mxGeometry relative="1" as="geometry">
            <mxPoint x="52" y="349" as="sourcePoint" />
            <mxPoint x="212" y="349" as="targetPoint" />
          </mxGeometry>
        </mxCell>
        <mxCell id="CuT0-UTq4PFeX5ZE3Q96-23" value="Submit" style="html=1;shadow=0;dashed=0;shape=mxgraph.bootstrap.rrect;rSize=5;strokeColor=none;strokeWidth=1;fillColor=#0085FC;fontColor=#FFFFFF;whiteSpace=wrap;align=left;verticalAlign=middle;spacingLeft=0;fontStyle=1;fontSize=14;spacing=5;" vertex="1" parent="1">
          <mxGeometry x="103" y="380" width="60" height="20" as="geometry" />
        </mxCell>
        <mxCell id="CuT0-UTq4PFeX5ZE3Q96-24" value="&amp;nbsp; &amp;nbsp; &amp;nbsp; &amp;nbsp; &amp;nbsp; &amp;nbsp; &amp;nbsp;&lt;font style=&quot;font-size: 14px;&quot;&gt; &lt;b&gt;Your Location&lt;/b&gt;&lt;/font&gt;" style="html=1;shadow=0;dashed=0;shape=mxgraph.bootstrap.rrect;rSize=5;strokeColor=#33A64C;strokeWidth=1;fillColor=none;fontColor=#33A64C;whiteSpace=wrap;align=center;verticalAlign=middle;spacingLeft=0;fontStyle=0;fontSize=16;spacing=5;" vertex="1" parent="1">
          <mxGeometry x="329" y="128" width="170" height="32" as="geometry" />
        </mxCell>
        <mxCell id="CuT0-UTq4PFeX5ZE3Q96-25" value="" style="endArrow=none;html=1;rounded=0;" edge="1" parent="1">
          <mxGeometry relative="1" as="geometry">
            <mxPoint x="334" y="135" as="sourcePoint" />
            <mxPoint x="352" y="135" as="targetPoint" />
          </mxGeometry>
        </mxCell>
        <mxCell id="CuT0-UTq4PFeX5ZE3Q96-28" value="" style="endArrow=none;html=1;rounded=0;" edge="1" parent="1">
          <mxGeometry relative="1" as="geometry">
            <mxPoint x="334" y="142" as="sourcePoint" />
            <mxPoint x="352" y="142" as="targetPoint" />
          </mxGeometry>
        </mxCell>
        <mxCell id="CuT0-UTq4PFeX5ZE3Q96-29" value="" style="endArrow=none;html=1;rounded=0;" edge="1" parent="1">
          <mxGeometry relative="1" as="geometry">
            <mxPoint x="334" y="149" as="sourcePoint" />
            <mxPoint x="352" y="149" as="targetPoint" />
          </mxGeometry>
        </mxCell>
        <mxCell id="CuT0-UTq4PFeX5ZE3Q96-30" value="&lt;b&gt;&amp;nbsp; &amp;nbsp; &amp;nbsp; &amp;nbsp; &amp;nbsp;&lt;font style=&quot;font-size: 14px;&quot;&gt; &amp;nbsp;Search Bandhu&lt;/font&gt;&lt;/b&gt;" style="html=1;shadow=0;dashed=0;shape=mxgraph.bootstrap.rrect;rSize=5;strokeColor=#33A64C;strokeWidth=1;fillColor=none;fontColor=#33A64C;whiteSpace=wrap;align=center;verticalAlign=middle;spacingLeft=0;fontStyle=0;fontSize=16;spacing=5;" vertex="1" parent="1">
          <mxGeometry x="329" y="173" width="170" height="32" as="geometry" />
        </mxCell>
        <mxCell id="CuT0-UTq4PFeX5ZE3Q96-32" value="" style="html=1;shadow=0;dashed=0;shape=mxgraph.bootstrap.rrect;rSize=5;strokeColor=#33A64C;strokeWidth=1;fillColor=none;fontColor=#33A64C;whiteSpace=wrap;align=center;verticalAlign=middle;spacingLeft=0;fontStyle=0;fontSize=16;spacing=5;" vertex="1" parent="1">
          <mxGeometry x="322.5" y="223" width="181" height="210" as="geometry" />
        </mxCell>
        <mxCell id="CuT0-UTq4PFeX5ZE3Q96-33" value="" style="verticalLabelPosition=bottom;verticalAlign=top;html=1;shadow=1;dashed=0;strokeWidth=1;shape=mxgraph.android.phone2;strokeColor=#000000;" vertex="1" parent="1">
          <mxGeometry x="873" y="78" width="200" height="390" as="geometry" />
        </mxCell>
        <mxCell id="CuT0-UTq4PFeX5ZE3Q96-36" value="" style="verticalLabelPosition=bottom;verticalAlign=top;html=1;shape=mxgraph.basic.drop;shadow=1;fontSize=14;strokeColor=#000000;direction=west;" vertex="1" parent="1">
          <mxGeometry x="339" y="256" width="10" height="18" as="geometry" />
        </mxCell>
        <mxCell id="CuT0-UTq4PFeX5ZE3Q96-37" value="" style="verticalLabelPosition=bottom;verticalAlign=top;html=1;shape=mxgraph.basic.drop;shadow=1;fontSize=14;strokeColor=#000000;direction=west;" vertex="1" parent="1">
          <mxGeometry x="404" y="291" width="10" height="18" as="geometry" />
        </mxCell>
        <mxCell id="CuT0-UTq4PFeX5ZE3Q96-38" value="" style="verticalLabelPosition=bottom;verticalAlign=top;html=1;shape=mxgraph.basic.drop;shadow=1;fontSize=14;strokeColor=#000000;direction=west;" vertex="1" parent="1">
          <mxGeometry x="400" y="238" width="10" height="18" as="geometry" />
        </mxCell>
        <mxCell id="CuT0-UTq4PFeX5ZE3Q96-39" value="" style="verticalLabelPosition=bottom;verticalAlign=top;html=1;shape=mxgraph.basic.drop;shadow=1;fontSize=14;strokeColor=#000000;direction=west;" vertex="1" parent="1">
          <mxGeometry x="464" y="258" width="10" height="18" as="geometry" />
        </mxCell>
        <mxCell id="CuT0-UTq4PFeX5ZE3Q96-40" value="" style="html=1;shadow=0;dashed=0;shape=mxgraph.bootstrap.rrect;rSize=5;strokeColor=#343A40;strokeWidth=1;fillColor=none;fontColor=#343A40;whiteSpace=wrap;align=center;verticalAlign=middle;spacingLeft=0;fontStyle=0;fontSize=16;spacing=5;" vertex="1" parent="1">
          <mxGeometry x="606.5" y="145" width="173" height="99" as="geometry" />
        </mxCell>
        <mxCell id="CuT0-UTq4PFeX5ZE3Q96-42" value="" style="html=1;shadow=0;dashed=0;shape=mxgraph.bootstrap.rrect;rSize=5;strokeColor=#343A40;strokeWidth=1;fillColor=none;fontColor=#343A40;whiteSpace=wrap;align=center;verticalAlign=middle;spacingLeft=0;fontStyle=0;fontSize=16;spacing=5;" vertex="1" parent="1">
          <mxGeometry x="606.5" y="256" width="173" height="99" as="geometry" />
        </mxCell>
        <mxCell id="CuT0-UTq4PFeX5ZE3Q96-43" value="&lt;font style=&quot;font-size: 11px;&quot;&gt;&lt;b&gt;Doorstep/Breakdown&lt;/b&gt;&lt;/font&gt;" style="html=1;shadow=0;dashed=0;shape=mxgraph.bootstrap.rrect;rSize=5;strokeColor=#33A64C;strokeWidth=1;fillColor=none;fontColor=#33A64C;whiteSpace=wrap;align=center;verticalAlign=middle;spacingLeft=0;fontStyle=0;fontSize=16;spacing=5;" vertex="1" parent="1">
          <mxGeometry x="660.5" y="123" width="119" height="20" as="geometry" />
        </mxCell>
      </root>
    </mxGraphModel>
  </diagram>
</mxfile>
